<svg version="1.1" viewBox="0.0 0.0 600.0 371.0" fill="none" stroke="none" stroke-linecap="square" stroke-miterlimit="10" width="600" height="371" xmlns:xlink="http://www.w3.org/1999/xlink" xmlns="http://www.w3.org/2000/svg"><path fill="#ffffff" d="M0 0L600.0 0L600.0 371.0L0 371.0L0 0Z" fill-rule="nonzero"/><path stroke="#cccccc" stroke-width="1.0" stroke-linecap="butt" d="M138.5 61.5L138.5 300.5" fill-rule="nonzero"/><path stroke="#cccccc" stroke-width="1.0" stroke-linecap="butt" d="M233.5 61.5L233.5 300.5" fill-rule="nonzero"/><path stroke="#cccccc" stroke-width="1.0" stroke-linecap="butt" d="M328.5 61.5L328.5 300.5" fill-rule="nonzero"/><path stroke="#cccccc" stroke-width="1.0" stroke-linecap="butt" d="M423.5 61.5L423.5 300.5" fill-rule="nonzero"/><path stroke="#cccccc" stroke-width="1.0" stroke-linecap="butt" d="M518.5 61.5L518.5 300.5" fill-rule="nonzero"/><path stroke="#333333" stroke-width="1.0" stroke-linecap="butt" d="M77.5 300.5L581.5 300.5" fill-rule="nonzero"/><path stroke="#cccccc" stroke-width="1.0" stroke-linecap="butt" d="M77.5 220.5L581.5 220.5" fill-rule="nonzero"/><path stroke="#cccccc" stroke-width="1.0" stroke-linecap="butt" d="M77.5 141.5L581.5 141.5" fill-rule="nonzero"/><path stroke="#cccccc" stroke-width="1.0" stroke-linecap="butt" d="M77.5 61.5L581.5 61.5" fill-rule="nonzero"/><clipPath id="id_0"><path d="M77.55 61.916668L581.45 61.916668L581.45 300.45L77.55 300.45L77.55 61.916668Z" clip-rule="nonzero"/></clipPath><path stroke="#4285f4" stroke-width="2.0" stroke-linecap="butt" clip-path="url(#id_0)" d="M77.55 254.37999L137.27148 233.21487L253.915 206.09628L417.2159 150.25458L581.45 90.89787" fill-rule="nonzero"/><path fill="#000000" fill-opacity="0.0" clip-path="url(#id_0)" d="M80.55 254.37999C80.55 256.03683 79.206856 257.38 77.55 257.38C75.89314 257.38 74.55 256.03683 74.55 254.37999C74.55 252.72313 75.89314 251.37999 77.55 251.37999C79.206856 251.37999 80.55 252.72313 80.55 254.37999Z" fill-rule="nonzero"/><path fill="#000000" fill-opacity="0.0" clip-path="url(#id_0)" d="M140.27148 233.21487C140.27148 234.87173 138.92833 236.21487 137.27148 236.21487C135.61462 236.21487 134.27148 234.87173 134.27148 233.21487C134.27148 231.55801 135.61462 230.21487 137.27148 230.21487C138.92833 230.21487 140.27148 231.55801 140.27148 233.21487Z" fill-rule="nonzero"/><path fill="#000000" fill-opacity="0.0" clip-path="url(#id_0)" d="M256.915 206.09628C256.915 207.75314 255.57185 209.09628 253.915 209.09628C252.25815 209.09628 250.915 207.75314 250.915 206.09628C250.915 204.43944 252.25815 203.09628 253.915 203.09628C255.57185 203.09628 256.915 204.43944 256.915 206.09628Z" fill-rule="nonzero"/><path fill="#000000" fill-opacity="0.0" clip-path="url(#id_0)" d="M420.2159 150.25458C420.2159 151.91142 418.87277 153.25458 417.2159 153.25458C415.55908 153.25458 414.2159 151.91142 414.2159 150.25458C414.2159 148.59772 415.55908 147.25458 417.2159 147.25458C418.87277 147.25458 420.2159 148.59772 420.2159 150.25458Z" fill-rule="nonzero"/><path fill="#000000" fill-opacity="0.0" clip-path="url(#id_0)" d="M584.45 90.89787C584.45 92.554726 583.1069 93.89787 581.45 93.89787C579.79315 93.89787 578.45 92.554726 578.45 90.89787C578.45 89.24101 579.79315 87.89787 581.45 87.89787C583.1069 87.89787 584.45 89.24101 584.45 90.89787Z" fill-rule="nonzero"/><path fill="#000000" d="M289.92188 349.45L287.64062 340.85626L288.8125 340.85626L290.125 346.4969Q290.32812 347.3719 290.48438 348.2469Q290.8125 346.8719 290.875 346.65314L292.5 340.85626L293.875 340.85626L295.10938 345.2Q295.5625 346.825 295.78125 348.2469Q295.9375 347.4344 296.20312 346.3719L297.54688 340.85626L298.6875 340.85626L296.34375 349.45L295.23438 349.45L293.4375 342.90314Q293.20312 342.09064 293.15625 341.90314Q293.03125 342.48126 292.90625 342.90314L291.09375 349.45L289.92188 349.45ZM303.54688 347.45L304.64062 347.575Q304.39062 348.52814 303.6875 349.0594Q302.98438 349.59064 301.90625 349.59064Q300.54688 349.59064 299.73438 348.7469Q298.9375 347.90314 298.9375 346.3875Q298.9375 344.825 299.75 343.96564Q300.5625 343.09064 301.84375 343.09064Q303.09375 343.09064 303.875 343.9344Q304.67188 344.77814 304.67188 346.325Q304.67188 346.41876 304.67188 346.60626L300.03125 346.60626Q300.09375 347.6375 300.60938 348.1844Q301.125 348.71564 301.90625 348.71564Q302.48438 348.71564 302.89062 348.41876Q303.3125 348.10626 303.54688 347.45ZM300.09375 345.7469L303.5625 345.7469Q303.5 344.95 303.17188 344.5594Q302.65625 343.95 301.85938 343.95Q301.125 343.95 300.625 344.4344Q300.14062 344.91876 300.09375 345.7469ZM307.26562 349.45L306.28125 349.45L306.28125 340.85626L307.34375 340.85626L307.34375 343.91876Q308.01562 343.09064 309.04688 343.09064Q309.625 343.09064 310.125 343.325Q310.64062 343.54376 310.96875 343.96564Q311.3125 344.3875 311.5 344.98126Q311.6875 345.575 311.6875 346.2469Q311.6875 347.84064 310.89062 348.71564Q310.09375 349.59064 309.0 349.59064Q307.89062 349.59064 307.26562 348.66876L307.26562 349.45ZM307.25 346.29376Q307.25 347.40314 307.5625 347.90314Q308.0625 348.71564 308.90625 348.71564Q309.59375 348.71564 310.09375 348.1219Q310.60938 347.52814 310.60938 346.325Q310.60938 345.10626 310.125 344.52814Q309.64062 343.95 308.95312 343.95Q308.26562 343.95 307.75 344.5594Q307.25 345.15314 307.25 346.29376ZM317.54688 347.45L318.64062 347.575Q318.39062 348.52814 317.6875 349.0594Q316.98438 349.59064 315.90625 349.59064Q314.54688 349.59064 313.73438 348.7469Q312.9375 347.90314 312.9375 346.3875Q312.9375 344.825 313.75 343.96564Q314.5625 343.09064 315.84375 343.09064Q317.09375 343.09064 317.875 343.9344Q318.67188 344.77814 318.67188 346.325Q318.67188 346.41876 318.67188 346.60626L314.03125 346.60626Q314.09375 347.6375 314.60938 348.1844Q315.125 348.71564 315.90625 348.71564Q316.48438 348.71564 316.89062 348.41876Q317.3125 348.10626 317.54688 347.45ZM314.09375 345.7469L317.5625 345.7469Q317.5 344.95 317.17188 344.5594Q316.65625 343.95 315.85938 343.95Q315.125 343.95 314.625 344.4344Q314.14062 344.91876 314.09375 345.7469ZM320.28125 349.45L320.28125 343.23126L321.23438 343.23126L321.23438 344.16876Q321.59375 343.5125 321.89062 343.3094Q322.20312 343.09064 322.57812 343.09064Q323.10938 343.09064 323.65625 343.41876L323.29688 344.40314Q322.90625 344.16876 322.53125 344.16876Q322.17188 344.16876 321.89062 344.3875Q321.625 344.59064 321.51562 344.96564Q321.32812 345.52814 321.32812 346.1844L321.32812 349.45L320.28125 349.45ZM327.42188 349.45L327.42188 340.85626L328.57812 340.85626L333.09375 347.60626L333.09375 340.85626L334.1875 340.85626L334.1875 349.45L333.01562 349.45L328.5 342.7L328.5 349.45L327.42188 349.45ZM340.375 349.45L340.375 348.52814Q339.64062 349.59064 338.39062 349.59064Q337.84375 349.59064 337.35938 349.3875Q336.89062 349.16876 336.65625 348.85626Q336.42188 348.52814 336.32812 348.0594Q336.26562 347.7625 336.26562 347.075L336.26562 343.23126L337.32812 343.23126L337.32812 346.6844Q337.32812 347.4969 337.39062 347.79376Q337.48438 348.2 337.79688 348.45Q338.125 348.6844 338.60938 348.6844Q339.07812 348.6844 339.48438 348.45Q339.90625 348.2 340.07812 347.77814Q340.26562 347.35626 340.26562 346.5594L340.26562 343.23126L341.3125 343.23126L341.3125 349.45L340.375 349.45ZM343.29688 349.45L343.29688 343.23126L344.23438 343.23126L344.23438 344.10626Q344.53125 343.6375 345.01562 343.3719Q345.5 343.09064 346.125 343.09064Q346.8125 343.09064 347.25 343.3719Q347.70312 343.65314 347.875 344.16876Q348.625 343.09064 349.79688 343.09064Q350.73438 343.09064 351.21875 343.60626Q351.71875 344.10626 351.71875 345.1844L351.71875 349.45L350.67188 349.45L350.67188 345.52814Q350.67188 344.90314 350.5625 344.6219Q350.46875 344.34064 350.20312 344.16876Q349.9375 343.9969 349.5625 343.9969Q348.90625 343.9969 348.46875 344.4344Q348.04688 344.8719 348.04688 345.84064L348.04688 349.45L346.98438 349.45L346.98438 345.40314Q346.98438 344.7 346.71875 344.35626Q346.46875 343.9969 345.89062 343.9969Q345.4375 343.9969 345.0625 344.23126Q344.6875 344.46564 344.51562 344.91876Q344.34375 345.3719 344.34375 346.21564L344.34375 349.45L343.29688 349.45ZM355.26562 349.45L354.28125 349.45L354.28125 340.85626L355.34375 340.85626L355.34375 343.91876Q356.01562 343.09064 357.04688 343.09064Q357.625 343.09064 358.125 343.325Q358.64062 343.54376 358.96875 343.96564Q359.3125 344.3875 359.5 344.98126Q359.6875 345.575 359.6875 346.2469Q359.6875 347.84064 358.89062 348.71564Q358.09375 349.59064 357.0 349.59064Q355.89062 349.59064 355.26562 348.66876L355.26562 349.45ZM355.25 346.29376Q355.25 347.40314 355.5625 347.90314Q356.0625 348.71564 356.90625 348.71564Q357.59375 348.71564 358.09375 348.1219Q358.60938 347.52814 358.60938 346.325Q358.60938 345.10626 358.125 344.52814Q357.64062 343.95 356.95312 343.95Q356.26562 343.95 355.75 344.5594Q355.25 345.15314 355.25 346.29376ZM365.54688 347.45L366.64062 347.575Q366.39062 348.52814 365.6875 349.0594Q364.98438 349.59064 363.90625 349.59064Q362.54688 349.59064 361.73438 348.7469Q360.9375 347.90314 360.9375 346.3875Q360.9375 344.825 361.75 343.96564Q362.5625 343.09064 363.84375 343.09064Q365.09375 343.09064 365.875 343.9344Q366.67188 344.77814 366.67188 346.325Q366.67188 346.41876 366.67188 346.60626L362.03125 346.60626Q362.09375 347.6375 362.60938 348.1844Q363.125 348.71564 363.90625 348.71564Q364.48438 348.71564 364.89062 348.41876Q365.3125 348.10626 365.54688 347.45ZM362.09375 345.7469L365.5625 345.7469Q365.5 344.95 365.17188 344.5594Q364.65625 343.95 363.85938 343.95Q363.125 343.95 362.625 344.4344Q362.14062 344.91876 362.09375 345.7469ZM368.28125 349.45L368.28125 343.23126L369.23438 343.23126L369.23438 344.16876Q369.59375 343.5125 369.89062 343.3094Q370.20312 343.09064 370.57812 343.09064Q371.10938 343.09064 371.65625 343.41876L371.29688 344.40314Q370.90625 344.16876 370.53125 344.16876Q370.17188 344.16876 369.89062 344.3875Q369.625 344.59064 369.51562 344.96564Q369.32812 345.52814 369.32812 346.1844L369.32812 349.45L368.28125 349.45Z" fill-rule="nonzero"/><path fill="#000000" d="M29.550013 252.74583L20.956263 252.74583L20.956263 248.93333Q20.956263 247.77708 21.190638 247.18333Q21.425013 246.58958 22.018763 246.23021Q22.596888 245.87083 23.300013 245.87083Q24.221888 245.87083 24.846888 246.46458Q25.471888 247.05833 25.643763 248.29271Q25.862513 247.83958 26.065638 247.60521Q26.518763 247.10521 27.206263 246.66771L29.550013 245.16771L29.550013 246.60521L27.768763 247.73021Q26.987513 248.23021 26.581263 248.55833Q26.175013 248.87083 26.018763 249.13646Q25.846888 249.38646 25.768763 249.65208Q25.737513 249.83958 25.737513 250.27708L25.737513 251.60521L29.550013 251.60521L29.550013 252.74583ZM24.753138 251.60521L24.753138 249.15208Q24.753138 248.38646 24.596888 247.94896Q24.425013 247.49583 24.081263 247.27708Q23.721888 247.04271 23.300013 247.04271Q22.690638 247.04271 22.300013 247.49583Q21.909388 247.93333 21.909388 248.88646L21.909388 251.60521L24.753138 251.60521ZM27.550013 239.63646L27.675013 238.54271Q28.628138 238.79271 29.159388 239.49583Q29.690638 240.19896 29.690638 241.27708Q29.690638 242.63646 28.846888 243.44896Q28.003138 244.24583 26.487513 244.24583Q24.925013 244.24583 24.065638 243.43333Q23.190638 242.62083 23.190638 241.33958Q23.190638 240.08958 24.034388 239.30833Q24.878138 238.51146 26.425013 238.51146Q26.518763 238.51146 26.706263 238.51146L26.706263 243.15208Q27.737513 243.08958 28.284388 242.57396Q28.815638 242.05833 28.815638 241.27708Q28.815638 240.69896 28.518763 240.29271Q28.206263 239.87083 27.550013 239.63646ZM25.846888 243.08958L25.846888 239.62083Q25.050013 239.68333 24.659388 240.01146Q24.050013 240.52708 24.050013 241.32396Q24.050013 242.05833 24.534388 242.55833Q25.018763 243.04271 25.846888 243.08958ZM28.612513 234.58958L29.534388 234.43333Q29.628138 234.88646 29.628138 235.23021Q29.628138 235.80833 29.456263 236.12083Q29.268763 236.43333 28.971888 236.57396Q28.675013 236.69896 27.721888 236.69896L24.143763 236.69896L24.143763 237.46458L23.331263 237.46458L23.331263 236.69896L21.784388 236.69896L21.159388 235.65208L23.331263 235.65208L23.331263 234.58958L24.143763 234.58958L24.143763 235.65208L27.784388 235.65208Q28.237513 235.65208 28.362513 235.60521Q28.487513 235.54271 28.565638 235.41771Q28.643763 235.29271 28.643763 235.05833Q28.643763 234.87083 28.612513 234.58958ZM29.550013 233.90208L23.331263 233.90208L23.331263 232.94896L24.268763 232.94896Q23.612513 232.58958 23.409388 232.29271Q23.190638 231.98021 23.190638 231.60521Q23.190638 231.07396 23.518763 230.52708L24.503138 230.88646Q24.268763 231.27708 24.268763 231.65208Q24.268763 232.01146 24.487513 232.29271Q24.690638 232.55833 25.065638 232.66771Q25.628138 232.85521 26.284388 232.85521L29.550013 232.85521L29.550013 233.90208ZM28.784388 225.82396Q29.284388 226.41771 29.487513 226.96458Q29.690638 227.49583 29.690638 228.12083Q29.690638 229.15208 29.190638 229.69896Q28.690638 230.24583 27.909388 230.24583Q27.456263 230.24583 27.081263 230.04271Q26.690638 229.83958 26.471888 229.49583Q26.237513 229.15208 26.128138 228.73021Q26.034388 228.43333 25.956263 227.79271Q25.815638 226.52708 25.596888 225.91771Q25.378138 225.91771 25.331263 225.91771Q24.675013 225.91771 24.409388 226.21458Q24.065638 226.62083 24.065638 227.41771Q24.065638 228.15208 24.331263 228.51146Q24.581263 228.87083 25.237513 229.04271L25.096888 230.07396Q24.440638 229.93333 24.034388 229.60521Q23.628138 229.27708 23.409388 228.66771Q23.190638 228.05833 23.190638 227.26146Q23.190638 226.46458 23.378138 225.96458Q23.565638 225.46458 23.846888 225.23021Q24.128138 224.99583 24.565638 224.90208Q24.831263 224.85521 25.534388 224.85521L26.940638 224.85521Q28.409388 224.85521 28.800013 224.79271Q29.190638 224.71458 29.550013 224.51146L29.550013 225.62083Q29.221888 225.77708 28.784388 225.82396ZM26.425013 225.91771Q26.659388 226.49583 26.831263 227.63646Q26.925013 228.29271 27.050013 228.55833Q27.159388 228.82396 27.378138 228.98021Q27.596888 229.12083 27.878138 229.12083Q28.300013 229.12083 28.581263 228.80833Q28.862513 228.48021 28.862513 227.87083Q28.862513 227.26146 28.596888 226.79271Q28.331263 226.30833 27.862513 226.08958Q27.503138 225.91771 26.815638 225.91771L26.425013 225.91771ZM27.268763 218.82396L27.409388 217.79271Q28.471888 217.96458 29.081263 218.66771Q29.690638 219.37083 29.690638 220.38646Q29.690638 221.66771 28.862513 222.44896Q28.018763 223.21458 26.456263 223.21458Q25.456263 223.21458 24.706263 222.88646Q23.940638 222.54271 23.565638 221.87083Q23.190638 221.18333 23.190638 220.37083Q23.190638 219.37083 23.706263 218.73021Q24.206263 218.07396 25.159388 217.88646L25.315638 218.91771Q24.690638 219.05833 24.378138 219.43333Q24.050013 219.80833 24.050013 220.33958Q24.050013 221.13646 24.628138 221.63646Q25.190638 222.13646 26.425013 222.13646Q27.690638 222.13646 28.253138 221.65208Q28.815638 221.16771 28.815638 220.40208Q28.815638 219.77708 28.440638 219.37083Q28.065638 218.94896 27.268763 218.82396ZM28.612513 214.58958L29.534388 214.43333Q29.628138 214.88646 29.628138 215.23021Q29.628138 215.80833 29.456263 216.12083Q29.268763 216.43333 28.971888 216.57396Q28.675013 216.69896 27.721888 216.69896L24.143763 216.69896L24.143763 217.46458L23.331263 217.46458L23.331263 216.69896L21.784388 216.69896L21.159388 215.65208L23.331263 215.65208L23.331263 214.58958L24.143763 214.58958L24.143763 215.65208L27.784388 215.65208Q28.237513 215.65208 28.362513 215.60521Q28.487513 215.54271 28.565638 215.41771Q28.643763 215.29271 28.643763 215.05833Q28.643763 214.87083 28.612513 214.58958ZM22.175013 213.88646L20.956263 213.88646L20.956263 212.82396L22.175013 212.82396L22.175013 213.88646ZM29.550013 213.88646L23.331263 213.88646L23.331263 212.82396L29.550013 212.82396L29.550013 213.88646ZM26.440638 211.27708Q24.706263 211.27708 23.878138 210.32396Q23.190638 209.52708 23.190638 208.37083Q23.190638 207.08958 24.034388 206.27708Q24.862513 205.44896 26.346888 205.44896Q27.550013 205.44896 28.237513 205.80833Q28.925013 206.16771 29.315638 206.87083Q29.690638 207.55833 29.690638 208.37083Q29.690638 209.66771 28.862513 210.48021Q28.018763 211.27708 26.440638 211.27708ZM26.440638 210.19896Q27.628138 210.19896 28.221888 209.68333Q28.815638 209.15208 28.815638 208.37083Q28.815638 207.57396 28.221888 207.05833Q27.628138 206.54271 26.409388 206.54271Q25.253138 206.54271 24.659388 207.07396Q24.065638 207.58958 24.065638 208.37083Q24.065638 209.15208 24.659388 209.68333Q25.237513 210.19896 26.440638 210.19896ZM29.550013 203.88646L23.331263 203.88646L23.331263 202.94896L24.206263 202.94896Q23.190638 202.26146 23.190638 200.96458Q23.190638 200.40208 23.393763 199.93333Q23.596888 199.44896 23.925013 199.21458Q24.253138 198.98021 24.690638 198.88646Q24.987513 198.83958 25.721888 198.83958L29.550013 198.83958L29.550013 199.88646L25.768763 199.88646Q25.112513 199.88646 24.800013 200.01146Q24.487513 200.13646 24.300013 200.44896Q24.096888 200.76146 24.096888 201.18333Q24.096888 201.85521 24.534388 202.35521Q24.956263 202.83958 26.143763 202.83958L29.550013 202.83958L29.550013 203.88646ZM29.550013 191.30833L20.956263 194.63646L20.956263 193.40208L27.206263 191.16771Q27.956263 190.90208 28.612513 190.71458Q27.909388 190.51146 27.206263 190.24583L20.956263 187.93333L20.956263 186.77708L29.550013 190.13646L29.550013 191.30833ZM27.550013 182.63646L27.675013 181.54271Q28.628138 181.79271 29.159388 182.49583Q29.690638 183.19896 29.690638 184.27708Q29.690638 185.63646 28.846888 186.44896Q28.003138 187.24583 26.487513 187.24583Q24.925013 187.24583 24.065638 186.43333Q23.190638 185.62083 23.190638 184.33958Q23.190638 183.08958 24.034388 182.30833Q24.878138 181.51146 26.425013 181.51146Q26.518763 181.51146 26.706263 181.51146L26.706263 186.15208Q27.737513 186.08958 28.284388 185.57396Q28.815638 185.05833 28.815638 184.27708Q28.815638 183.69896 28.518763 183.29271Q28.206263 182.87083 27.550013 182.63646ZM25.846888 186.08958L25.846888 182.62083Q25.050013 182.68333 24.659388 183.01146Q24.050013 183.52708 24.050013 184.32396Q24.050013 185.05833 24.534388 185.55833Q25.018763 186.04271 25.846888 186.08958ZM29.550013 179.91771L20.956263 179.91771L20.956263 178.85521L29.550013 178.85521L29.550013 179.91771ZM26.440638 177.27708Q24.706263 177.27708 23.878138 176.32396Q23.190638 175.52708 23.190638 174.37083Q23.190638 173.08958 24.034388 172.27708Q24.862513 171.44896 26.346888 171.44896Q27.550013 171.44896 28.237513 171.80833Q28.925013 172.16771 29.315638 172.87083Q29.690638 173.55833 29.690638 174.37083Q29.690638 175.66771 28.862513 176.48021Q28.018763 177.27708 26.440638 177.27708ZM26.440638 176.19896Q27.628138 176.19896 28.221888 175.68333Q28.815638 175.15208 28.815638 174.37083Q28.815638 173.57396 28.221888 173.05833Q27.628138 172.54271 26.409388 172.54271Q25.253138 172.54271 24.659388 173.07396Q24.065638 173.58958 24.065638 174.37083Q24.065638 175.15208 24.659388 175.68333Q25.237513 176.19896 26.440638 176.19896ZM27.268763 165.82396L27.409388 164.79271Q28.471888 164.96458 29.081263 165.66771Q29.690638 166.37083 29.690638 167.38646Q29.690638 168.66771 28.862513 169.44896Q28.018763 170.21458 26.456263 170.21458Q25.456263 170.21458 24.706263 169.88646Q23.940638 169.54271 23.565638 168.87083Q23.190638 168.18333 23.190638 167.37083Q23.190638 166.37083 23.706263 165.73021Q24.206263 165.07396 25.159388 164.88646L25.315638 165.91771Q24.690638 166.05833 24.378138 166.43333Q24.050013 166.80833 24.050013 167.33958Q24.050013 168.13646 24.628138 168.63646Q25.190638 169.13646 26.425013 169.13646Q27.690638 169.13646 28.253138 168.65208Q28.815638 168.16771 28.815638 167.40208Q28.815638 166.77708 28.440638 166.37083Q28.065638 165.94896 27.268763 165.82396ZM22.175013 163.88646L20.956263 163.88646L20.956263 162.82396L22.175013 162.82396L22.175013 163.88646ZM29.550013 163.88646L23.331263 163.88646L23.331263 162.82396L29.550013 162.82396L29.550013 163.88646ZM28.612513 158.58958L29.534388 158.43333Q29.628138 158.88646 29.628138 159.23021Q29.628138 159.80833 29.456263 160.12083Q29.268763 160.43333 28.971888 160.57396Q28.675013 160.69896 27.721888 160.69896L24.143763 160.69896L24.143763 161.46458L23.331263 161.46458L23.331263 160.69896L21.784388 160.69896L21.159388 159.65208L23.331263 159.65208L23.331263 158.58958L24.143763 158.58958L24.143763 159.65208L27.784388 159.65208Q28.237513 159.65208 28.362513 159.60521Q28.487513 159.54271 28.565638 159.41771Q28.643763 159.29271 28.643763 159.05833Q28.643763 158.87083 28.612513 158.58958ZM31.940638 157.93333L30.956263 158.05833Q31.050013 157.71458 31.050013 157.44896Q31.050013 157.10521 30.925013 156.90208Q30.815638 156.68333 30.612513 156.54271Q30.440638 156.44896 29.815638 156.21458Q29.737513 156.19896 29.565638 156.12083L23.331263 158.49583L23.331263 157.35521L26.925013 156.05833Q27.612513 155.80833 28.378138 155.60521Q27.643763 155.41771 26.956263 155.16771L23.331263 153.83958L23.331263 152.79271L29.659388 155.15208Q30.675013 155.54271 31.065638 155.74583Q31.596888 156.02708 31.831263 156.40208Q32.08126 156.76146 32.08126 157.26146Q32.08126 157.55833 31.940638 157.93333ZM32.08126 147.87083Q30.971888 148.74583 29.503138 149.35521Q28.018763 149.94896 26.440638 149.94896Q25.050013 149.94896 23.768763 149.51146Q22.284388 148.98021 20.815638 147.87083L20.815638 147.12083Q22.034388 147.82396 22.550013 148.05833Q23.362513 148.41771 24.237513 148.62083Q25.331263 148.87083 26.440638 148.87083Q29.268763 148.87083 32.08126 147.12083L32.08126 147.87083ZM29.550013 145.88646L23.331263 145.88646L23.331263 144.94896L24.206263 144.94896Q23.737513 144.65208 23.471888 144.16771Q23.190638 143.68333 23.190638 143.05833Q23.190638 142.37083 23.471888 141.93333Q23.753138 141.48021 24.268763 141.30833Q23.190638 140.55833 23.190638 139.38646Q23.190638 138.44896 23.706263 137.96458Q24.206263 137.46458 25.284388 137.46458L29.550013 137.46458L29.550013 138.51146L25.628138 138.51146Q25.003138 138.51146 24.721888 138.62083Q24.440638 138.71458 24.268763 138.98021Q24.096888 139.24583 24.096888 139.62083Q24.096888 140.27708 24.534388 140.71458Q24.971888 141.13646 25.940638 141.13646L29.550013 141.13646L29.550013 142.19896L25.503138 142.19896Q24.800013 142.19896 24.456263 142.46458Q24.096888 142.71458 24.096888 143.29271Q24.096888 143.74583 24.331263 144.12083Q24.565638 144.49583 25.018763 144.66771Q25.471888 144.83958 26.315638 144.83958L29.550013 144.83958L29.550013 145.88646ZM29.690638 135.68333L20.815638 133.19896L20.815638 132.35521L29.690638 134.83958L29.690638 135.68333ZM27.690638 132.30833L27.534388 131.27708Q28.159388 131.18333 28.487513 130.79271Q28.815638 130.38646 28.815638 129.65208Q28.815638 128.93333 28.534388 128.58958Q28.237513 128.23021 27.831263 128.23021Q27.471888 128.23021 27.268763 128.54271Q27.128138 128.76146 26.909388 129.62083Q26.612513 130.77708 26.409388 131.23021Q26.190638 131.66771 25.815638 131.90208Q25.440638 132.13646 24.971888 132.13646Q24.565638 132.13646 24.206263 131.94896Q23.846888 131.76146 23.612513 131.43333Q23.440638 131.18333 23.315638 130.76146Q23.190638 130.33958 23.190638 129.83958Q23.190638 129.12083 23.409388 128.57396Q23.612513 128.01146 23.971888 127.745834Q24.331263 127.48021 24.925013 127.38646L25.065638 128.41771Q24.596888 128.48021 24.331263 128.82396Q24.050013 129.15208 24.050013 129.77708Q24.050013 130.49583 24.300013 130.80833Q24.534388 131.12083 24.862513 131.12083Q25.065638 131.12083 25.221888 130.99583Q25.393763 130.85521 25.503138 130.58958Q25.565638 130.43333 25.768763 129.65208Q26.081263 128.52708 26.268763 128.08958Q26.456263 127.652084 26.815638 127.402084Q27.175013 127.152084 27.721888 127.152084Q28.253138 127.152084 28.721888 127.464584Q29.175013 127.76146 29.440638 128.33958Q29.690638 128.91771 29.690638 129.65208Q29.690638 130.87083 29.190638 131.51146Q28.675013 132.13646 27.690638 132.30833ZM32.08126 124.19896L32.08126 124.94896Q29.268763 123.19896 26.440638 123.19896Q25.346888 123.19896 24.253138 123.44896Q23.378138 123.652084 22.565638 124.01146Q22.050013 124.245834 20.815638 124.94896L20.815638 124.19896Q22.284388 123.10521 23.768763 122.57396Q25.050013 122.120834 26.440638 122.120834Q28.018763 122.120834 29.503138 122.73021Q30.971888 123.339584 32.08126 124.19896Z" fill-rule="nonzero"/><path fill="#000000" d="M55.05 300.21564Q55.05 298.6844 55.3625 297.7625Q55.675 296.825 56.284374 296.325Q56.909374 295.825 57.846874 295.825Q58.534374 295.825 59.05 296.10626Q59.58125 296.3875 59.925 296.91876Q60.26875 297.4344 60.45625 298.1844Q60.64375 298.9344 60.64375 300.21564Q60.64375 301.73126 60.33125 302.65314Q60.034374 303.575 59.409374 304.09064Q58.8 304.59064 57.846874 304.59064Q56.6125 304.59064 55.89375 303.7Q55.05 302.6375 55.05 300.21564ZM56.128124 300.21564Q56.128124 302.325 56.628124 303.02814Q57.128124 303.73126 57.846874 303.73126Q58.58125 303.73126 59.065624 303.02814Q59.565624 302.325 59.565624 300.21564Q59.565624 298.09064 59.065624 297.40314Q58.58125 296.7 57.83125 296.7Q57.1125 296.7 56.675 297.3094Q56.128124 298.09064 56.128124 300.21564ZM62.64375 304.45L62.64375 303.2469L63.846874 303.2469L63.846874 304.45L62.64375 304.45ZM65.05 300.21564Q65.05 298.6844 65.3625 297.7625Q65.675 296.825 66.28438 296.325Q66.90938 295.825 67.84688 295.825Q68.53438 295.825 69.05 296.10626Q69.58125 296.3875 69.925 296.91876Q70.26875 297.4344 70.45625 298.1844Q70.64375 298.9344 70.64375 300.21564Q70.64375 301.73126 70.33125 302.65314Q70.03438 303.575 69.40938 304.09064Q68.8 304.59064 67.84688 304.59064Q66.6125 304.59064 65.89375 303.7Q65.05 302.6375 65.05 300.21564ZM66.12813 300.21564Q66.12813 302.325 66.62813 303.02814Q67.12813 303.73126 67.84688 303.73126Q68.58125 303.73126 69.06563 303.02814Q69.56563 302.325 69.56563 300.21564Q69.56563 298.09064 69.06563 297.40314Q68.58125 296.7 67.83125 296.7Q67.1125 296.7 66.675 297.3094Q66.12813 298.09064 66.12813 300.21564Z" fill-rule="nonzero"/><path fill="#000000" d="M55.05 220.70451Q55.05 219.17326 55.3625 218.25139Q55.675 217.31389 56.284374 216.81389Q56.909374 216.31389 57.846874 216.31389Q58.534374 216.31389 59.05 216.59514Q59.58125 216.87639 59.925 217.40764Q60.26875 217.92326 60.45625 218.67326Q60.64375 219.42326 60.64375 220.70451Q60.64375 222.22014 60.33125 223.14201Q60.034374 224.06389 59.409374 224.57951Q58.8 225.07951 57.846874 225.07951Q56.6125 225.07951 55.89375 224.18889Q55.05 223.12639 55.05 220.70451ZM56.128124 220.70451Q56.128124 222.81389 56.628124 223.51701Q57.128124 224.22014 57.846874 224.22014Q58.58125 224.22014 59.065624 223.51701Q59.565624 222.81389 59.565624 220.70451Q59.565624 218.57951 59.065624 217.89201Q58.58125 217.18889 57.83125 217.18889Q57.1125 217.18889 56.675 217.79826Q56.128124 218.57951 56.128124 220.70451ZM62.64375 224.93889L62.64375 223.73576L63.846874 223.73576L63.846874 224.93889L62.64375 224.93889ZM70.59688 223.92326L70.59688 224.93889L64.90938 224.93889Q64.90938 224.56389 65.03438 224.20451Q65.25313 223.62639 65.72188 223.06389Q66.20625 222.50139 67.1125 221.76701Q68.51875 220.61076 69.00313 219.93889Q69.50313 219.26701 69.50313 218.67326Q69.50313 218.04826 69.05 217.62639Q68.59688 217.18889 67.87813 217.18889Q67.1125 217.18889 66.65938 217.64201Q66.20625 218.09514 66.19063 218.90764L65.1125 218.79826Q65.22188 217.57951 65.94063 216.95451Q66.675 216.31389 67.90938 216.31389Q69.14375 216.31389 69.8625 217.00139Q70.58125 217.68889 70.58125 218.70451Q70.58125 219.22014 70.3625 219.72014Q70.15938 220.20451 69.65938 220.76701Q69.175 221.31389 68.05 222.26701Q67.09688 223.06389 66.81563 223.36076Q66.55 223.64201 66.37813 223.92326L70.59688 223.92326Z" fill-rule="nonzero"/><path fill="#000000" d="M55.05 141.1934Q55.05 139.66216 55.3625 138.74028Q55.675 137.80278 56.284374 137.30278Q56.909374 136.80278 57.846874 136.80278Q58.534374 136.80278 59.05 137.08403Q59.58125 137.36528 59.925 137.89653Q60.26875 138.41216 60.45625 139.16216Q60.64375 139.91216 60.64375 141.1934Q60.64375 142.70903 60.33125 143.6309Q60.034374 144.55278 59.409374 145.0684Q58.8 145.5684 57.846874 145.5684Q56.6125 145.5684 55.89375 144.67778Q55.05 143.61528 55.05 141.1934ZM56.128124 141.1934Q56.128124 143.30278 56.628124 144.0059Q57.128124 144.70903 57.846874 144.70903Q58.58125 144.70903 59.065624 144.0059Q59.565624 143.30278 59.565624 141.1934Q59.565624 139.0684 59.065624 138.3809Q58.58125 137.67778 57.83125 137.67778Q57.1125 137.67778 56.675 138.28716Q56.128124 139.0684 56.128124 141.1934ZM62.64375 145.42778L62.64375 144.22466L63.846874 144.22466L63.846874 145.42778L62.64375 145.42778ZM68.425 145.42778L68.425 143.36528L64.70625 143.36528L64.70625 142.39653L68.62813 136.83403L69.4875 136.83403L69.4875 142.39653L70.64375 142.39653L70.64375 143.36528L69.4875 143.36528L69.4875 145.42778L68.425 145.42778ZM68.425 142.39653L68.425 138.53716L65.7375 142.39653L68.425 142.39653Z" fill-rule="nonzero"/><path fill="#000000" d="M55.05 61.68229Q55.05 60.15104 55.3625 59.229164Q55.675 58.291664 56.284374 57.791664Q56.909374 57.291664 57.846874 57.291664Q58.534374 57.291664 59.05 57.572914Q59.58125 57.854164 59.925 58.385414Q60.26875 58.90104 60.45625 59.65104Q60.64375 60.40104 60.64375 61.68229Q60.64375 63.197914 60.33125 64.11979Q60.034374 65.041664 59.409374 65.55729Q58.8 66.05729 57.846874 66.05729Q56.6125 66.05729 55.89375 65.166664Q55.05 64.104164 55.05 61.68229ZM56.128124 61.68229Q56.128124 63.791664 56.628124 64.49479Q57.128124 65.197914 57.846874 65.197914Q58.58125 65.197914 59.065624 64.49479Q59.565624 63.791664 59.565624 61.68229Q59.565624 59.55729 59.065624 58.86979Q58.58125 58.166664 57.83125 58.166664Q57.1125 58.166664 56.675 58.77604Q56.128124 59.55729 56.128124 61.68229ZM62.64375 65.916664L62.64375 64.71354L63.846874 64.71354L63.846874 65.916664L62.64375 65.916664ZM70.51875 59.43229L69.47188 59.510414Q69.33125 58.885414 69.08125 58.604164Q68.64375 58.15104 68.01875 58.15104Q67.51875 58.15104 67.12813 58.43229Q66.64375 58.80729 66.34688 59.510414Q66.06563 60.197914 66.05 61.479164Q66.425 60.90104 66.97188 60.61979Q67.53438 60.33854 68.14375 60.33854Q69.19063 60.33854 69.925 61.11979Q70.675 61.90104 70.675 63.11979Q70.675 63.93229 70.31563 64.635414Q69.97188 65.322914 69.3625 65.697914Q68.75313 66.05729 67.9875 66.05729Q66.65938 66.05729 65.83125 65.08854Q65.00313 64.11979 65.00313 61.90104Q65.00313 59.40104 65.925 58.27604Q66.72188 57.291664 68.08125 57.291664Q69.09688 57.291664 69.7375 57.86979Q70.39375 58.43229 70.51875 59.43229ZM66.22188 63.135414Q66.22188 63.68229 66.44063 64.18229Q66.675 64.666664 67.08125 64.93229Q67.50313 65.197914 67.97188 65.197914Q68.62813 65.197914 69.1125 64.666664Q69.59688 64.11979 69.59688 63.197914Q69.59688 62.30729 69.1125 61.791664Q68.64375 61.27604 67.925 61.27604Q67.20625 61.27604 66.70625 61.791664Q66.22188 62.30729 66.22188 63.135414Z" fill-rule="nonzero"/><path fill="#000000" d="M136.30771 317.45L135.26083 317.45L135.26083 310.73126Q134.87021 311.09064 134.24521 311.46564Q133.63583 311.825 133.15146 311.9969L133.15146 310.98126Q134.02646 310.5594 134.68271 309.98126Q135.35458 309.3875 135.63583 308.825L136.30771 308.825L136.30771 317.45ZM139.33896 313.21564Q139.33896 311.6844 139.65146 310.7625Q139.96396 309.825 140.57333 309.325Q141.19833 308.825 142.13583 308.825Q142.82333 308.825 143.33896 309.10626Q143.87021 309.3875 144.21396 309.91876Q144.55771 310.4344 144.74521 311.1844Q144.93271 311.9344 144.93271 313.21564Q144.93271 314.73126 144.62021 315.65314Q144.32333 316.575 143.69833 317.09064Q143.08896 317.59064 142.13583 317.59064Q140.90146 317.59064 140.18271 316.7Q139.33896 315.6375 139.33896 313.21564ZM140.41708 313.21564Q140.41708 315.325 140.91708 316.02814Q141.41708 316.73126 142.13583 316.73126Q142.87021 316.73126 143.35458 316.02814Q143.85458 315.325 143.85458 313.21564Q143.85458 311.09064 143.35458 310.40314Q142.87021 309.7 142.12021 309.7Q141.40146 309.7 140.96396 310.3094Q140.41708 311.09064 140.41708 313.21564Z" fill-rule="nonzero"/><path fill="#000000" d="M232.76813 316.4344L232.76813 317.45L227.08063 317.45Q227.08063 317.075 227.20563 316.71564Q227.42438 316.1375 227.89313 315.575Q228.3775 315.0125 229.28375 314.27814Q230.69 313.1219 231.17438 312.45Q231.67438 311.77814 231.67438 311.1844Q231.67438 310.5594 231.22125 310.1375Q230.76813 309.7 230.04938 309.7Q229.28375 309.7 228.83063 310.15314Q228.3775 310.60626 228.36188 311.41876L227.28375 311.3094Q227.39313 310.09064 228.11188 309.46564Q228.84625 308.825 230.08063 308.825Q231.315 308.825 232.03375 309.5125Q232.7525 310.2 232.7525 311.21564Q232.7525 311.73126 232.53375 312.23126Q232.33063 312.71564 231.83063 313.27814Q231.34625 313.825 230.22125 314.77814Q229.26813 315.575 228.98688 315.8719Q228.72125 316.15314 228.54938 316.4344L232.76813 316.4344ZM234.22125 313.21564Q234.22125 311.6844 234.53375 310.7625Q234.84625 309.825 235.45563 309.325Q236.08063 308.825 237.01813 308.825Q237.70563 308.825 238.22125 309.10626Q238.7525 309.3875 239.09625 309.91876Q239.44 310.4344 239.6275 311.1844Q239.815 311.9344 239.815 313.21564Q239.815 314.73126 239.5025 315.65314Q239.20563 316.575 238.58063 317.09064Q237.97125 317.59064 237.01813 317.59064Q235.78375 317.59064 235.065 316.7Q234.22125 315.6375 234.22125 313.21564ZM235.29938 313.21564Q235.29938 315.325 235.79938 316.02814Q236.29938 316.73126 237.01813 316.73126Q237.7525 316.73126 238.23688 316.02814Q238.73688 315.325 238.73688 313.21564Q238.73688 311.09064 238.23688 310.40314Q237.7525 309.7 237.0025 309.7Q236.28375 309.7 235.84625 310.3094Q235.29938 311.09064 235.29938 313.21564Z" fill-rule="nonzero"/><path fill="#000000" d="M322.10355 315.1844L323.16605 315.04376Q323.33792 315.9344 323.77542 316.34064Q324.21292 316.73126 324.83792 316.73126Q325.58792 316.73126 326.10355 316.21564Q326.61917 315.7 326.61917 314.9344Q326.61917 314.21564 326.1348 313.7469Q325.66605 313.2625 324.93167 313.2625Q324.6348 313.2625 324.18167 313.3875L324.30667 312.45Q324.41605 312.46564 324.47855 312.46564Q325.15042 312.46564 325.68167 312.1219Q326.22855 311.7625 326.22855 311.02814Q326.22855 310.45 325.83792 310.075Q325.4473 309.6844 324.8223 309.6844Q324.21292 309.6844 323.79105 310.075Q323.3848 310.46564 323.27542 311.23126L322.21292 311.04376Q322.40042 309.9969 323.08792 309.41876Q323.77542 308.825 324.79105 308.825Q325.49417 308.825 326.08792 309.1375Q326.68167 309.4344 326.99417 309.95Q327.30667 310.46564 327.30667 311.0594Q327.30667 311.60626 327.0098 312.075Q326.71292 312.52814 326.1348 312.79376Q326.8848 312.96564 327.30667 313.52814Q327.72855 314.075 327.72855 314.91876Q327.72855 316.04376 326.90042 316.825Q326.08792 317.60626 324.83792 317.60626Q323.71292 317.60626 322.96292 316.9344Q322.21292 316.2469 322.10355 315.1844ZM329.10355 313.21564Q329.10355 311.6844 329.41605 310.7625Q329.72855 309.825 330.33792 309.325Q330.96292 308.825 331.90042 308.825Q332.58792 308.825 333.10355 309.10626Q333.6348 309.3875 333.97855 309.91876Q334.3223 310.4344 334.5098 311.1844Q334.6973 311.9344 334.6973 313.21564Q334.6973 314.73126 334.3848 315.65314Q334.08792 316.575 333.46292 317.09064Q332.85355 317.59064 331.90042 317.59064Q330.66605 317.59064 329.9473 316.7Q329.10355 315.6375 329.10355 313.21564ZM330.18167 313.21564Q330.18167 315.325 330.68167 316.02814Q331.18167 316.73126 331.90042 316.73126Q332.6348 316.73126 333.11917 316.02814Q333.61917 315.325 333.61917 313.21564Q333.61917 311.09064 333.11917 310.40314Q332.6348 309.7 331.8848 309.7Q331.16605 309.7 330.72855 310.3094Q330.18167 311.09064 330.18167 313.21564Z" fill-rule="nonzero"/><path fill="#000000" d="M420.36084 317.45L420.36084 315.3875L416.6421 315.3875L416.6421 314.41876L420.56396 308.85626L421.42334 308.85626L421.42334 314.41876L422.5796 314.41876L422.5796 315.3875L421.42334 315.3875L421.42334 317.45L420.36084 317.45ZM420.36084 314.41876L420.36084 310.5594L417.67334 314.41876L420.36084 314.41876ZM423.98584 313.21564Q423.98584 311.6844 424.29834 310.7625Q424.61084 309.825 425.2202 309.325Q425.8452 308.825 426.7827 308.825Q427.4702 308.825 427.98584 309.10626Q428.5171 309.3875 428.86084 309.91876Q429.2046 310.4344 429.3921 311.1844Q429.5796 311.9344 429.5796 313.21564Q429.5796 314.73126 429.2671 315.65314Q428.9702 316.575 428.3452 317.09064Q427.73584 317.59064 426.7827 317.59064Q425.54834 317.59064 424.8296 316.7Q423.98584 315.6375 423.98584 313.21564ZM425.06396 313.21564Q425.06396 315.325 425.56396 316.02814Q426.06396 316.73126 426.7827 316.73126Q427.5171 316.73126 428.00146 316.02814Q428.50146 315.325 428.50146 313.21564Q428.50146 311.09064 428.00146 310.40314Q427.5171 309.7 426.7671 309.7Q426.04834 309.7 425.61084 310.3094Q425.06396 311.09064 425.06396 313.21564Z" fill-rule="nonzero"/><path fill="#000000" d="M511.86813 315.2L512.97754 315.10626Q513.10254 315.91876 513.54004 316.325Q513.99316 316.73126 514.6338 316.73126Q515.3838 316.73126 515.91504 316.15314Q516.4463 315.575 516.4463 314.6375Q516.4463 313.73126 515.93066 313.21564Q515.43066 312.6844 514.60254 312.6844Q514.10254 312.6844 513.68066 312.91876Q513.2744 313.15314 513.04004 313.5125L512.05566 313.3875L512.8838 308.98126L517.16504 308.98126L517.16504 309.98126L513.72754 309.98126L513.2744 312.29376Q514.04004 311.7469 514.8838 311.7469Q516.0088 311.7469 516.7744 312.52814Q517.55566 313.3094 517.55566 314.54376Q517.55566 315.7 516.8838 316.5594Q516.05566 317.59064 514.6338 317.59064Q513.4619 317.59064 512.7119 316.9344Q511.9775 316.27814 511.86813 315.2ZM518.86816 313.21564Q518.86816 311.6844 519.18066 310.7625Q519.49316 309.825 520.10254 309.325Q520.72754 308.825 521.66504 308.825Q522.35254 308.825 522.86816 309.10626Q523.3994 309.3875 523.74316 309.91876Q524.0869 310.4344 524.2744 311.1844Q524.4619 311.9344 524.4619 313.21564Q524.4619 314.73126 524.1494 315.65314Q523.85254 316.575 523.22754 317.09064Q522.61816 317.59064 521.66504 317.59064Q520.43066 317.59064 519.7119 316.7Q518.86816 315.6375 518.86816 313.21564ZM519.9463 313.21564Q519.9463 315.325 520.4463 316.02814Q520.9463 316.73126 521.66504 316.73126Q522.3994 316.73126 522.8838 316.02814Q523.3838 315.325 523.3838 313.21564Q523.3838 311.09064 522.8838 310.40314Q522.3994 309.7 521.6494 309.7Q520.93066 309.7 520.49316 310.3094Q519.9463 311.09064 519.9463 313.21564Z" fill-rule="nonzero"/><path fill="#757575" d="M20.128124 38.55L20.128124 24.2375L26.471874 24.2375Q28.378124 24.2375 29.378124 24.628124Q30.378124 25.003124 30.971874 25.9875Q31.565624 26.95625 31.565624 28.14375Q31.565624 29.659374 30.58125 30.70625Q29.596874 31.753124 27.534374 32.034374Q28.284374 32.39375 28.675 32.753124Q29.503124 33.503124 30.253124 34.659374L32.7375 38.55L30.3625 38.55L28.45625 35.565624Q27.628124 34.284374 27.096874 33.596874Q26.565624 32.909374 26.128124 32.64375Q25.70625 32.3625 25.26875 32.253124Q24.940624 32.190624 24.221874 32.190624L22.01875 32.190624L22.01875 38.55L20.128124 38.55ZM22.01875 30.55L26.096874 30.55Q27.39375 30.55 28.1125 30.284374Q28.846874 30.01875 29.221874 29.425Q29.6125 28.83125 29.6125 28.14375Q29.6125 27.128124 28.878124 26.471874Q28.14375 25.815624 26.55 25.815624L22.01875 25.815624L22.01875 30.55ZM40.971874 35.20625L42.784374 35.440624Q42.3625 37.01875 41.190624 37.909374Q40.034374 38.784374 38.221874 38.784374Q35.95625 38.784374 34.6125 37.39375Q33.284374 35.9875 33.284374 33.45625Q33.284374 30.83125 34.628124 29.39375Q35.971874 27.940624 38.128124 27.940624Q40.20625 27.940624 41.51875 29.3625Q42.846874 30.76875 42.846874 33.346874Q42.846874 33.503124 42.83125 33.815624L35.096874 33.815624Q35.190624 35.51875 36.065624 36.425Q36.940624 37.33125 38.2375 37.33125Q39.20625 37.33125 39.878124 36.83125Q40.565624 36.315624 40.971874 35.20625ZM35.190624 32.3625L40.9875 32.3625Q40.878124 31.065624 40.33125 30.409374Q39.4875 29.39375 38.14375 29.39375Q36.940624 29.39375 36.1125 30.20625Q35.284374 31.003124 35.190624 32.3625ZM48.70625 36.971874L48.95625 38.534374Q48.221874 38.690624 47.628124 38.690624Q46.675 38.690624 46.14375 38.39375Q45.628124 38.08125 45.409374 37.596874Q45.190624 37.096874 45.190624 35.51875L45.190624 29.55L43.909374 29.55L43.909374 28.175L45.190624 28.175L45.190624 25.6125L46.940624 24.55L46.940624 28.175L48.70625 28.175L48.70625 29.55L46.940624 29.55L46.940624 35.6125Q46.940624 36.3625 47.034374 36.58125Q47.128124 36.784374 47.33125 36.925Q47.55 37.05 47.940624 37.05Q48.221874 37.05 48.70625 36.971874ZM50.846874 38.55L50.846874 28.175L52.425 28.175L52.425 29.753124Q53.034374 28.64375 53.55 28.3Q54.065624 27.940624 54.675 27.940624Q55.565624 27.940624 56.4875 28.503124L55.878124 30.14375Q55.2375 29.753124 54.596874 29.753124Q54.01875 29.753124 53.55 30.1125Q53.096874 30.45625 52.89375 31.065624Q52.6125 32.003124 52.6125 33.1125L52.6125 38.55L50.846874 38.55ZM64.64375 37.26875Q63.659374 38.096874 62.753124 38.440624Q61.846874 38.784374 60.815624 38.784374Q59.1125 38.784374 58.190624 37.95625Q57.26875 37.1125 57.26875 35.815624Q57.26875 35.05 57.6125 34.425Q57.971874 33.8 58.534374 33.425Q59.096874 33.034374 59.8 32.83125Q60.315624 32.70625 61.3625 32.565624Q63.4875 32.315624 64.4875 31.971874Q64.50313 31.6125 64.50313 31.503124Q64.50313 30.440624 64.00313 29.9875Q63.33125 29.39375 62.003124 29.39375Q60.753124 29.39375 60.159374 29.83125Q59.58125 30.26875 59.3 31.378124L57.58125 31.14375Q57.815624 30.034374 58.346874 29.3625Q58.878124 28.675 59.89375 28.315624Q60.909374 27.940624 62.253124 27.940624Q63.58125 27.940624 64.40938 28.253124Q65.2375 28.565624 65.62813 29.05Q66.01875 29.51875 66.175 30.2375Q66.26875 30.690624 66.26875 31.8625L66.26875 34.20625Q66.26875 36.659374 66.37813 37.315624Q66.4875 37.95625 66.83125 38.55L64.9875 38.55Q64.72188 38.003124 64.64375 37.26875ZM64.4875 33.346874Q63.534374 33.7375 61.6125 34.003124Q60.534374 34.159374 60.08125 34.3625Q59.64375 34.55 59.39375 34.925Q59.14375 35.3 59.14375 35.76875Q59.14375 36.471874 59.675 36.940624Q60.20625 37.409374 61.2375 37.409374Q62.253124 37.409374 63.034374 36.971874Q63.83125 36.51875 64.20625 35.753124Q64.4875 35.14375 64.4875 33.9875L64.4875 33.346874ZM75.64375 34.753124L77.3625 34.971874Q77.08125 36.76875 75.90938 37.784374Q74.75313 38.784374 73.05 38.784374Q70.925 38.784374 69.62813 37.39375Q68.33125 36.003124 68.33125 33.409374Q68.33125 31.721874 68.87813 30.471874Q69.44063 29.20625 70.58125 28.58125Q71.72188 27.940624 73.06563 27.940624Q74.75313 27.940624 75.81563 28.8Q76.89375 29.659374 77.20625 31.221874L75.4875 31.4875Q75.25313 30.440624 74.62813 29.925Q74.00313 29.39375 73.12813 29.39375Q71.8 29.39375 70.97188 30.346874Q70.14375 31.3 70.14375 33.346874Q70.14375 35.440624 70.94063 36.39375Q71.7375 37.33125 73.03438 37.33125Q74.06563 37.33125 74.75313 36.70625Q75.45625 36.065624 75.64375 34.753124ZM82.70625 36.971874L82.95625 38.534374Q82.22188 38.690624 81.62813 38.690624Q80.675 38.690624 80.14375 38.39375Q79.62813 38.08125 79.40938 37.596874Q79.19063 37.096874 79.19063 35.51875L79.19063 29.55L77.90938 29.55L77.90938 28.175L79.19063 28.175L79.19063 25.6125L80.94063 24.55L80.94063 28.175L82.70625 28.175L82.70625 29.55L80.94063 29.55L80.94063 35.6125Q80.94063 36.3625 81.03438 36.58125Q81.12813 36.784374 81.33125 36.925Q81.55 37.05 81.94063 37.05Q82.22188 37.05 82.70625 36.971874ZM84.87813 26.253124L84.87813 24.2375L86.64375 24.2375L86.64375 26.253124L84.87813 26.253124ZM84.87813 38.55L84.87813 28.175L86.64375 28.175L86.64375 38.55L84.87813 38.55ZM88.22188 33.3625Q88.22188 30.4875 89.81563 29.096874Q91.15938 27.940624 93.08125 27.940624Q95.22188 27.940624 96.56563 29.346874Q97.925 30.753124 97.925 33.221874Q97.925 35.221874 97.33125 36.378124Q96.7375 37.51875 95.58125 38.159374Q94.44063 38.784374 93.08125 38.784374Q90.89375 38.784374 89.55 37.39375Q88.22188 35.9875 88.22188 33.3625ZM90.01875 33.3625Q90.01875 35.3625 90.87813 36.346874Q91.75313 37.33125 93.08125 37.33125Q94.39375 37.33125 95.25313 36.346874Q96.12813 35.346874 96.12813 33.3Q96.12813 31.378124 95.25313 30.39375Q94.37813 29.39375 93.08125 29.39375Q91.75313 29.39375 90.87813 30.39375Q90.01875 31.378124 90.01875 33.3625ZM99.8625 38.55L99.8625 28.175L101.45625 28.175L101.45625 29.659374Q102.59688 27.940624 104.75313 27.940624Q105.69063 27.940624 106.47188 28.284374Q107.26875 28.6125 107.65938 29.159374Q108.05 29.70625 108.20625 30.45625Q108.3 30.95625 108.3 32.175L108.3 38.55L106.53438 38.55L106.53438 32.2375Q106.53438 31.159374 106.33125 30.628124Q106.12813 30.096874 105.59688 29.784374Q105.08125 29.471874 104.37813 29.471874Q103.25313 29.471874 102.44063 30.190624Q101.62813 30.89375 101.62813 32.878124L101.62813 38.55L99.8625 38.55ZM120.19063 38.55L114.64375 24.2375L116.69063 24.2375L120.40938 34.628124Q120.8625 35.878124 121.15938 36.971874Q121.4875 35.8 121.94063 34.628124L125.8 24.2375L127.7375 24.2375L122.12813 38.55L120.19063 38.55ZM135.97188 35.20625L137.78438 35.440624Q137.3625 37.01875 136.19063 37.909374Q135.03438 38.784374 133.22188 38.784374Q130.95625 38.784374 129.6125 37.39375Q128.28438 35.9875 128.28438 33.45625Q128.28438 30.83125 129.62813 29.39375Q130.97188 27.940624 133.12813 27.940624Q135.20625 27.940624 136.51875 29.3625Q137.84688 30.76875 137.84688 33.346874Q137.84688 33.503124 137.83125 33.815624L130.09688 33.815624Q130.19063 35.51875 131.06563 36.425Q131.94063 37.33125 133.2375 37.33125Q134.20625 37.33125 134.87813 36.83125Q135.56563 36.315624 135.97188 35.20625ZM130.19063 32.3625L135.9875 32.3625Q135.87813 31.065624 135.33125 30.409374Q134.4875 29.39375 133.14375 29.39375Q131.94063 29.39375 131.1125 30.20625Q130.28438 31.003124 130.19063 32.3625ZM139.83125 38.55L139.83125 24.2375L141.58125 24.2375L141.58125 38.55L139.83125 38.55ZM143.22188 33.3625Q143.22188 30.4875 144.81563 29.096874Q146.15938 27.940624 148.08125 27.940624Q150.22188 27.940624 151.56563 29.346874Q152.925 30.753124 152.925 33.221874Q152.925 35.221874 152.33125 36.378124Q151.7375 37.51875 150.58125 38.159374Q149.44063 38.784374 148.08125 38.784374Q145.89375 38.784374 144.55 37.39375Q143.22188 35.9875 143.22188 33.3625ZM145.01875 33.3625Q145.01875 35.3625 145.87813 36.346874Q146.75313 37.33125 148.08125 37.33125Q149.39375 37.33125 150.25313 36.346874Q151.12813 35.346874 151.12813 33.3Q151.12813 31.378124 150.25313 30.39375Q149.37813 29.39375 148.08125 29.39375Q146.75313 29.39375 145.87813 30.39375Q145.01875 31.378124 145.01875 33.3625ZM161.64375 34.753124L163.3625 34.971874Q163.08125 36.76875 161.90938 37.784374Q160.75313 38.784374 159.05 38.784374Q156.925 38.784374 155.62813 37.39375Q154.33125 36.003124 154.33125 33.409374Q154.33125 31.721874 154.87813 30.471874Q155.44063 29.20625 156.58125 28.58125Q157.72188 27.940624 159.06563 27.940624Q160.75313 27.940624 161.81563 28.8Q162.89375 29.659374 163.20625 31.221874L161.4875 31.4875Q161.25313 30.440624 160.62813 29.925Q160.00313 29.39375 159.12813 29.39375Q157.8 29.39375 156.97188 30.346874Q156.14375 31.3 156.14375 33.346874Q156.14375 35.440624 156.94063 36.39375Q157.7375 37.33125 159.03438 37.33125Q160.06563 37.33125 160.75313 36.70625Q161.45625 36.065624 161.64375 34.753124ZM164.87813 26.253124L164.87813 24.2375L166.64375 24.2375L166.64375 26.253124L164.87813 26.253124ZM164.87813 38.55L164.87813 28.175L166.64375 28.175L166.64375 38.55L164.87813 38.55ZM172.70625 36.971874L172.95625 38.534374Q172.22188 38.690624 171.62813 38.690624Q170.675 38.690624 170.14375 38.39375Q169.62813 38.08125 169.40938 37.596874Q169.19063 37.096874 169.19063 35.51875L169.19063 29.55L167.90938 29.55L167.90938 28.175L169.19063 28.175L169.19063 25.6125L170.94063 24.55L170.94063 28.175L172.70625 28.175L172.70625 29.55L170.94063 29.55L170.94063 35.6125Q170.94063 36.3625 171.03438 36.58125Q171.12813 36.784374 171.33125 36.925Q171.55 37.05 171.94063 37.05Q172.22188 37.05 172.70625 36.971874ZM174.78438 42.55L174.59688 40.89375Q175.175 41.05 175.59688 41.05Q176.19063 41.05 176.53438 40.846874Q176.89375 40.659374 177.1125 40.315624Q177.28438 40.05 177.65938 39.003124Q177.70625 38.846874 177.81563 38.565624L173.87813 28.175L175.76875 28.175L177.925 34.190624Q178.34688 35.33125 178.675 36.58125Q178.9875 35.378124 179.39375 34.221874L181.6125 28.175L183.37813 28.175L179.425 38.721874Q178.8 40.440624 178.44063 41.08125Q177.97188 41.95625 177.3625 42.346874Q176.76875 42.753124 175.925 42.753124Q175.40938 42.753124 174.78438 42.55ZM194.22188 42.753124Q192.76875 40.925 191.76875 38.471874Q190.76875 36.003124 190.76875 33.3625Q190.76875 31.034374 191.51875 28.909374Q192.39375 26.440624 194.22188 23.9875L195.4875 23.9875Q194.3 26.01875 193.925 26.89375Q193.33125 28.2375 192.9875 29.70625Q192.56563 31.534374 192.56563 33.378124Q192.56563 38.065624 195.4875 42.753124L194.22188 42.753124ZM197.8625 38.55L197.8625 28.175L199.44063 28.175L199.44063 29.628124Q199.925 28.878124 200.7375 28.409374Q201.55 27.940624 202.58125 27.940624Q203.7375 27.940624 204.47188 28.425Q205.20625 28.89375 205.51875 29.753124Q206.75313 27.940624 208.72188 27.940624Q210.26875 27.940624 211.09688 28.8Q211.925 29.659374 211.925 31.425L211.925 38.55L210.175 38.55L210.175 32.01875Q210.175 30.95625 210.00313 30.503124Q209.83125 30.034374 209.37813 29.753124Q208.94063 29.471874 208.33125 29.471874Q207.2375 29.471874 206.50313 30.20625Q205.78438 30.925 205.78438 32.51875L205.78438 38.55L204.03438 38.55L204.03438 31.815624Q204.03438 30.64375 203.59688 30.065624Q203.175 29.471874 202.19063 29.471874Q201.45625 29.471874 200.81563 29.8625Q200.19063 30.253124 199.90938 31.003124Q199.62813 31.753124 199.62813 33.175L199.62813 38.55L197.8625 38.55ZM212.55 38.8L216.70625 23.9875L218.1125 23.9875L213.97188 38.8L212.55 38.8ZM219.15938 35.45625L220.90938 35.175Q221.05 36.221874 221.72188 36.784374Q222.39375 37.33125 223.59688 37.33125Q224.8 37.33125 225.37813 36.846874Q225.97188 36.346874 225.97188 35.690624Q225.97188 35.096874 225.45625 34.753124Q225.09688 34.51875 223.65938 34.159374Q221.72188 33.659374 220.97188 33.315624Q220.2375 32.95625 219.84688 32.33125Q219.45625 31.690624 219.45625 30.925Q219.45625 30.2375 219.76875 29.64375Q220.09688 29.05 220.64375 28.659374Q221.05 28.3625 221.75313 28.159374Q222.47188 27.940624 223.28438 27.940624Q224.50313 27.940624 225.425 28.3Q226.34688 28.64375 226.78438 29.253124Q227.22188 29.846874 227.39375 30.846874L225.675 31.08125Q225.55 30.284374 224.9875 29.846874Q224.425 29.39375 223.40938 29.39375Q222.19063 29.39375 221.675 29.8Q221.15938 30.190624 221.15938 30.721874Q221.15938 31.065624 221.37813 31.346874Q221.58125 31.628124 222.05 31.815624Q222.31563 31.909374 223.59688 32.253124Q225.47188 32.753124 226.20625 33.08125Q226.94063 33.39375 227.3625 34.003124Q227.78438 34.596874 227.78438 35.503124Q227.78438 36.378124 227.26875 37.159374Q226.75313 37.940624 225.78438 38.3625Q224.81563 38.784374 223.59688 38.784374Q221.58125 38.784374 220.51875 37.940624Q219.45625 37.096874 219.15938 35.45625ZM231.01875 42.753124L229.76875 42.753124Q232.675 38.065624 232.675 33.378124Q232.675 31.534374 232.26875 29.7375Q231.925 28.26875 231.33125 26.925Q230.95625 26.034374 229.76875 23.9875L231.01875 23.9875Q232.8625 26.440624 233.7375 28.909374Q234.4875 31.034374 234.4875 33.3625Q234.4875 36.003124 233.47188 38.471874Q232.47188 40.925 231.01875 42.753124ZM245.75313 38.55L241.8 28.175L243.65938 28.175L245.89375 34.39375Q246.25313 35.39375 246.55 36.471874Q246.78438 35.659374 247.20625 34.503124L249.50313 28.175L251.31563 28.175L247.39375 38.55L245.75313 38.55ZM251.15938 35.45625L252.90938 35.175Q253.05 36.221874 253.72188 36.784374Q254.39375 37.33125 255.59688 37.33125Q256.8 37.33125 257.3781 36.846874Q257.97186 36.346874 257.97186 35.690624Q257.97186 35.096874 257.45624 34.753124Q257.09686 34.51875 255.65938 34.159374Q253.72188 33.659374 252.97188 33.315624Q252.2375 32.95625 251.84688 32.33125Q251.45625 31.690624 251.45625 30.925Q251.45625 30.2375 251.76875 29.64375Q252.09688 29.05 252.64375 28.659374Q253.05 28.3625 253.75313 28.159374Q254.47188 27.940624 255.28438 27.940624Q256.5031 27.940624 257.425 28.3Q258.34686 28.64375 258.78436 29.253124Q259.22186 29.846874 259.39374 30.846874L257.675 31.08125Q257.55 30.284374 256.9875 29.846874Q256.425 29.39375 255.40938 29.39375Q254.19063 29.39375 253.675 29.8Q253.15938 30.190624 253.15938 30.721874Q253.15938 31.065624 253.37813 31.346874Q253.58125 31.628124 254.05 31.815624Q254.31563 31.909374 255.59688 32.253124Q257.47186 32.753124 258.20624 33.08125Q258.9406 33.39375 259.3625 34.003124Q259.78436 34.596874 259.78436 35.503124Q259.78436 36.378124 259.26874 37.159374Q258.7531 37.940624 257.78436 38.3625Q256.8156 38.784374 255.59688 38.784374Q253.58125 38.784374 252.51875 37.940624Q251.45625 37.096874 251.15938 35.45625ZM262.3625 38.55L262.3625 36.55L264.3625 36.55L264.3625 38.55L262.3625 38.55ZM276.59686 38.55L272.8 24.2375L274.7375 24.2375L276.90936 33.6125Q277.26874 35.096874 277.51874 36.55Q278.0656 34.253124 278.15936 33.89375L280.89374 24.2375L283.175 24.2375L285.22186 31.471874Q286.0031 34.175 286.34686 36.55Q286.6125 35.190624 287.05 33.425L289.3 24.2375L291.20624 24.2375L287.28436 38.55L285.45624 38.55L282.4406 27.64375Q282.05 26.26875 281.9875 25.95625Q281.7531 26.940624 281.5656 27.64375L278.53436 38.55L276.59686 38.55ZM299.97186 35.20625L301.78436 35.440624Q301.3625 37.01875 300.1906 37.909374Q299.03436 38.784374 297.22186 38.784374Q294.95624 38.784374 293.6125 37.39375Q292.28436 35.9875 292.28436 33.45625Q292.28436 30.83125 293.6281 29.39375Q294.97186 27.940624 297.1281 27.940624Q299.20624 27.940624 300.51874 29.3625Q301.84686 30.76875 301.84686 33.346874Q301.84686 33.503124 301.83124 33.815624L294.09686 33.815624Q294.1906 35.51875 295.0656 36.425Q295.9406 37.33125 297.2375 37.33125Q298.20624 37.33125 298.8781 36.83125Q299.5656 36.315624 299.97186 35.20625ZM294.1906 32.3625L299.9875 32.3625Q299.8781 31.065624 299.33124 30.409374Q298.4875 29.39375 297.14374 29.39375Q295.9406 29.39375 295.1125 30.20625Q294.28436 31.003124 294.1906 32.3625ZM305.4875 38.55L303.8625 38.55L303.8625 24.2375L305.6125 24.2375L305.6125 29.346874Q306.7375 27.940624 308.45624 27.940624Q309.40936 27.940624 310.26874 28.33125Q311.1281 28.721874 311.675 29.425Q312.22186 30.1125 312.53436 31.096874Q312.84686 32.08125 312.84686 33.20625Q312.84686 35.878124 311.53436 37.33125Q310.22186 38.784374 308.3781 38.784374Q306.53436 38.784374 305.4875 37.253124L305.4875 38.55ZM305.47186 33.284374Q305.47186 35.14375 305.97186 35.9875Q306.8156 37.33125 308.22186 37.33125Q309.3781 37.33125 310.20624 36.33125Q311.05 35.33125 311.05 33.346874Q311.05 31.315624 310.2375 30.3625Q309.4406 29.39375 308.3 29.39375Q307.14374 29.39375 306.3 30.39375Q305.47186 31.39375 305.47186 33.284374ZM321.97186 35.20625L323.78436 35.440624Q323.3625 37.01875 322.1906 37.909374Q321.03436 38.784374 319.22186 38.784374Q316.95624 38.784374 315.6125 37.39375Q314.28436 35.9875 314.28436 33.45625Q314.28436 30.83125 315.6281 29.39375Q316.97186 27.940624 319.1281 27.940624Q321.20624 27.940624 322.51874 29.3625Q323.84686 30.76875 323.84686 33.346874Q323.84686 33.503124 323.83124 33.815624L316.09686 33.815624Q316.1906 35.51875 317.0656 36.425Q317.9406 37.33125 319.2375 37.33125Q320.20624 37.33125 320.8781 36.83125Q321.5656 36.315624 321.97186 35.20625ZM316.1906 32.3625L321.9875 32.3625Q321.8781 31.065624 321.33124 30.409374Q320.4875 29.39375 319.14374 29.39375Q317.9406 29.39375 317.1125 30.20625Q316.28436 31.003124 316.1906 32.3625ZM325.84686 38.55L325.84686 28.175L327.425 28.175L327.425 29.753124Q328.03436 28.64375 328.55 28.3Q329.0656 27.940624 329.675 27.940624Q330.5656 27.940624 331.4875 28.503124L330.8781 30.14375Q330.2375 29.753124 329.59686 29.753124Q329.01874 29.753124 328.55 30.1125Q328.09686 30.45625 327.89374 31.065624Q327.6125 32.003124 327.6125 33.1125L327.6125 38.55L325.84686 38.55ZM339.08124 38.55L339.08124 24.2375L341.01874 24.2375L348.53436 35.471874L348.53436 24.2375L350.34686 24.2375L350.34686 38.55L348.40936 38.55L340.89374 27.3L340.89374 38.55L339.08124 38.55ZM358.65936 38.55L358.65936 37.01875Q357.45624 38.784374 355.3781 38.784374Q354.45624 38.784374 353.65936 38.440624Q352.8625 38.08125 352.47186 37.55Q352.09686 37.01875 351.9406 36.2375Q351.83124 35.721874 351.83124 34.596874L351.83124 28.175L353.58124 28.175L353.58124 33.925Q353.58124 35.3 353.6906 35.784374Q353.8625 36.471874 354.39374 36.878124Q354.9406 37.26875 355.72186 37.26875Q356.51874 37.26875 357.20624 36.8625Q357.90936 36.45625 358.1906 35.76875Q358.4875 35.065624 358.4875 33.7375L358.4875 28.175L360.2375 28.175L360.2375 38.55L358.65936 38.55ZM361.8625 38.55L361.8625 28.175L363.4406 28.175L363.4406 29.628124Q363.925 28.878124 364.7375 28.409374Q365.55 27.940624 366.58124 27.940624Q367.7375 27.940624 368.47186 28.425Q369.20624 28.89375 369.51874 29.753124Q370.7531 27.940624 372.72186 27.940624Q374.26874 27.940624 375.09686 28.8Q375.925 29.659374 375.925 31.425L375.925 38.55L374.175 38.55L374.175 32.01875Q374.175 30.95625 374.0031 30.503124Q373.83124 30.034374 373.3781 29.753124Q372.9406 29.471874 372.33124 29.471874Q371.2375 29.471874 370.5031 30.20625Q369.78436 30.925 369.78436 32.51875L369.78436 38.55L368.03436 38.55L368.03436 31.815624Q368.03436 30.64375 367.59686 30.065624Q367.175 29.471874 366.1906 29.471874Q365.45624 29.471874 364.8156 29.8625Q364.1906 30.253124 363.90936 31.003124Q363.6281 31.753124 363.6281 33.175L363.6281 38.55L361.8625 38.55ZM379.4875 38.55L377.8625 38.55L377.8625 24.2375L379.6125 24.2375L379.6125 29.346874Q380.7375 27.940624 382.45624 27.940624Q383.40936 27.940624 384.26874 28.33125Q385.1281 28.721874 385.675 29.425Q386.22186 30.1125 386.53436 31.096874Q386.84686 32.08125 386.84686 33.20625Q386.84686 35.878124 385.53436 37.33125Q384.22186 38.784374 382.3781 38.784374Q380.53436 38.784374 379.4875 37.253124L379.4875 38.55ZM379.47186 33.284374Q379.47186 35.14375 379.97186 35.9875Q380.8156 37.33125 382.22186 37.33125Q383.3781 37.33125 384.20624 36.33125Q385.05 35.33125 385.05 33.346874Q385.05 31.315624 384.2375 30.3625Q383.4406 29.39375 382.3 29.39375Q381.14374 29.39375 380.3 30.39375Q379.47186 31.39375 379.47186 33.284374ZM395.97186 35.20625L397.78436 35.440624Q397.3625 37.01875 396.1906 37.909374Q395.03436 38.784374 393.22186 38.784374Q390.95624 38.784374 389.6125 37.39375Q388.28436 35.9875 388.28436 33.45625Q388.28436 30.83125 389.6281 29.39375Q390.97186 27.940624 393.1281 27.940624Q395.20624 27.940624 396.51874 29.3625Q397.84686 30.76875 397.84686 33.346874Q397.84686 33.503124 397.83124 33.815624L390.09686 33.815624Q390.1906 35.51875 391.0656 36.425Q391.9406 37.33125 393.2375 37.33125Q394.20624 37.33125 394.8781 36.83125Q395.5656 36.315624 395.97186 35.20625ZM390.1906 32.3625L395.9875 32.3625Q395.8781 31.065624 395.33124 30.409374Q394.4875 29.39375 393.14374 29.39375Q391.9406 29.39375 391.1125 30.20625Q390.28436 31.003124 390.1906 32.3625ZM399.84686 38.55L399.84686 28.175L401.425 28.175L401.425 29.753124Q402.03436 28.64375 402.55 28.3Q403.0656 27.940624 403.675 27.940624Q404.5656 27.940624 405.4875 28.503124L404.8781 30.14375Q404.2375 29.753124 403.59686 29.753124Q403.01874 29.753124 402.55 30.1125Q402.09686 30.45625 401.89374 31.065624Q401.6125 32.003124 401.6125 33.1125L401.6125 38.55L399.84686 38.55ZM413.28436 38.55L413.28436 29.55L411.7375 29.55L411.7375 28.175L413.28436 28.175L413.28436 27.08125Q413.28436 26.034374 413.47186 25.51875Q413.72186 24.83125 414.3625 24.409374Q415.0031 23.9875 416.15936 23.9875Q416.90936 23.9875 417.8 24.159374L417.53436 25.690624Q416.9875 25.596874 416.5031 25.596874Q415.70624 25.596874 415.3625 25.940624Q415.03436 26.284374 415.03436 27.221874L415.03436 28.175L417.0656 28.175L417.0656 29.55L415.03436 29.55L415.03436 38.55L413.28436 38.55ZM418.22186 33.3625Q418.22186 30.4875 419.8156 29.096874Q421.15936 27.940624 423.08124 27.940624Q425.22186 27.940624 426.5656 29.346874Q427.925 30.753124 427.925 33.221874Q427.925 35.221874 427.33124 36.378124Q426.7375 37.51875 425.58124 38.159374Q424.4406 38.784374 423.08124 38.784374Q420.89374 38.784374 419.55 37.39375Q418.22186 35.9875 418.22186 33.3625ZM420.01874 33.3625Q420.01874 35.3625 420.8781 36.346874Q421.7531 37.33125 423.08124 37.33125Q424.39374 37.33125 425.2531 36.346874Q426.1281 35.346874 426.1281 33.3Q426.1281 31.378124 425.2531 30.39375Q424.3781 29.39375 423.08124 29.39375Q421.7531 29.39375 420.8781 30.39375Q420.01874 31.378124 420.01874 33.3625ZM429.84686 38.55L429.84686 28.175L431.425 28.175L431.425 29.753124Q432.03436 28.64375 432.55 28.3Q433.0656 27.940624 433.675 27.940624Q434.5656 27.940624 435.4875 28.503124L434.8781 30.14375Q434.2375 29.753124 433.59686 29.753124Q433.01874 29.753124 432.55 30.1125Q432.09686 30.45625 431.89374 31.065624Q431.6125 32.003124 431.6125 33.1125L431.6125 38.55L429.84686 38.55ZM451.6125 36.8625L451.6125 38.55L442.15936 38.55Q442.14374 37.909374 442.3625 37.33125Q442.72186 36.3625 443.51874 35.425Q444.3156 34.4875 445.8156 33.253124Q448.15936 31.346874 448.97186 30.2375Q449.8 29.1125 449.8 28.1125Q449.8 27.065624 449.05 26.346874Q448.3 25.628124 447.09686 25.628124Q445.83124 25.628124 445.0656 26.39375Q444.3 27.159374 444.3 28.503124L442.4875 28.315624Q442.675 26.3 443.8781 25.2375Q445.09686 24.175 447.14374 24.175Q449.1906 24.175 450.39374 25.315624Q451.59686 26.45625 451.59686 28.14375Q451.59686 29.003124 451.2375 29.846874Q450.89374 30.675 450.08124 31.596874Q449.26874 32.503124 447.3781 34.1125Q445.78436 35.440624 445.33124 35.909374Q444.89374 36.378124 444.59686 36.8625L451.6125 36.8625ZM453.3781 31.4875Q453.3781 28.95625 453.89374 27.409374Q454.425 25.846874 455.45624 25.01875Q456.4875 24.175 458.05 24.175Q459.20624 24.175 460.0656 24.64375Q460.9406 25.096874 461.5031 25.971874Q462.0656 26.846874 462.39374 28.1125Q462.72186 29.3625 462.72186 31.4875Q462.72186 34.003124 462.1906 35.55Q461.675 37.096874 460.64374 37.95625Q459.6281 38.8 458.05 38.8Q455.97186 38.8 454.8 37.315624Q453.3781 35.51875 453.3781 31.4875ZM455.1906 31.4875Q455.1906 35.01875 456.0031 36.190624Q456.83124 37.346874 458.05 37.346874Q459.2531 37.346874 460.08124 36.175Q460.90936 35.003124 460.90936 31.4875Q460.90936 27.95625 460.08124 26.8Q459.2531 25.628124 458.03436 25.628124Q456.8156 25.628124 456.09686 26.659374Q455.1906 27.95625 455.1906 31.4875ZM464.3781 31.4875Q464.3781 28.95625 464.89374 27.409374Q465.425 25.846874 466.45624 25.01875Q467.4875 24.175 469.05 24.175Q470.20624 24.175 471.0656 24.64375Q471.9406 25.096874 472.5031 25.971874Q473.0656 26.846874 473.39374 28.1125Q473.72186 29.3625 473.72186 31.4875Q473.72186 34.003124 473.1906 35.55Q472.675 37.096874 471.64374 37.95625Q470.6281 38.8 469.05 38.8Q466.97186 38.8 465.8 37.315624Q464.3781 35.51875 464.3781 31.4875ZM466.1906 31.4875Q466.1906 35.01875 467.0031 36.190624Q467.83124 37.346874 469.05 37.346874Q470.2531 37.346874 471.08124 36.175Q471.90936 35.003124 471.90936 31.4875Q471.90936 27.95625 471.08124 26.8Q470.2531 25.628124 469.03436 25.628124Q467.8156 25.628124 467.09686 26.659374Q466.1906 27.95625 466.1906 31.4875ZM475.3781 31.4875Q475.3781 28.95625 475.89374 27.409374Q476.425 25.846874 477.45624 25.01875Q478.4875 24.175 480.05 24.175Q481.20624 24.175 482.0656 24.64375Q482.9406 25.096874 483.5031 25.971874Q484.0656 26.846874 484.39374 28.1125Q484.72186 29.3625 484.72186 31.4875Q484.72186 34.003124 484.1906 35.55Q483.675 37.096874 482.64374 37.95625Q481.6281 38.8 480.05 38.8Q477.97186 38.8 476.8 37.315624Q475.3781 35.51875 475.3781 31.4875ZM477.1906 31.4875Q477.1906 35.01875 478.0031 36.190624Q478.83124 37.346874 480.05 37.346874Q481.2531 37.346874 482.08124 36.175Q482.90936 35.003124 482.90936 31.4875Q482.90936 27.95625 482.08124 26.8Q481.2531 25.628124 480.03436 25.628124Q478.8156 25.628124 478.09686 26.659374Q477.1906 27.95625 477.1906 31.4875ZM493.09686 38.55L493.09686 24.2375L498.4875 24.2375Q499.925 24.2375 500.675 24.3625Q501.72186 24.55 502.4406 25.05Q503.15936 25.534374 503.58124 26.425Q504.01874 27.315624 504.01874 28.378124Q504.01874 30.20625 502.84686 31.471874Q501.6906 32.721874 498.65936 32.721874L494.9875 32.721874L494.9875 38.55L493.09686 38.55ZM494.9875 31.034374L498.6906 31.034374Q500.51874 31.034374 501.28436 30.3625Q502.0656 29.675 502.0656 28.425Q502.0656 27.534374 501.6125 26.89375Q501.15936 26.253124 500.425 26.05Q499.9406 25.925 498.64374 25.925L494.9875 25.925L494.9875 31.034374ZM506.09686 38.55L506.09686 24.2375L511.4875 24.2375Q512.925 24.2375 513.675 24.3625Q514.72186 24.55 515.4406 25.05Q516.15936 25.534374 516.58124 26.425Q517.01874 27.315624 517.01874 28.378124Q517.01874 30.20625 515.84686 31.471874Q514.6906 32.721874 511.65936 32.721874L507.9875 32.721874L507.9875 38.55L506.09686 38.55ZM507.9875 31.034374L511.6906 31.034374Q513.51874 31.034374 514.28436 30.3625Q515.0656 29.675 515.0656 28.425Q515.0656 27.534374 514.6125 26.89375Q514.15936 26.253124 513.425 26.05Q512.9406 25.925 511.64374 25.925L507.9875 25.925L507.9875 31.034374ZM519.03436 38.55L519.03436 24.2375L521.89374 24.2375L525.26874 34.3625Q525.7375 35.784374 525.95624 36.4875Q526.20624 35.70625 526.72186 34.190624L530.14374 24.2375L532.6906 24.2375L532.6906 38.55L530.8781 38.55L530.8781 26.565624L526.70624 38.55L525.0031 38.55L520.8625 26.3625L520.8625 38.55L519.03436 38.55Z" fill-rule="nonzero"/></svg>